<?xml version="1.0" standalone="no"?>
<!DOCTYPE svg PUBLIC "-//W3C//DTD SVG 20010904//EN"
 "http://www.w3.org/TR/2001/REC-SVG-20010904/DTD/svg10.dtd">
<svg version="1.0" xmlns="http://www.w3.org/2000/svg"
 width="640.000000pt" height="640.000000pt" viewBox="0 0 640.000000 640.000000"
 preserveAspectRatio="xMidYMid meet">
<metadata>
Created by potrace 1.14, written by Peter Selinger 2001-2017
</metadata>
<g transform="translate(0.000000,640.000000) scale(0.100000,-0.100000)"
fill="#000000" stroke="none">
<path d="M0 3200 l0 -3200 3200 0 3200 0 0 3200 0 3200 -3200 0 -3200 0 0
-3200z m3355 2720 c512 -33 943 -179 1370 -463 287 -192 544 -451 742 -747 63
-95 85 -132 165 -280 39 -71 124 -276 158 -380 180 -552 180 -1151 0 -1700
-201 -608 -612 -1128 -1165 -1472 -670 -417 -1518 -517 -2275 -268 -330 109
-648 287 -915 514 -374 318 -663 745 -820 1213 -142 422 -177 897 -98 1343
128 729 554 1373 1188 1797 263 175 575 309 881 378 188 42 314 58 584 73 14
1 97 -3 185 -8z"/>
<path d="M2981 5500 c-591 -57 -1158 -354 -1539 -805 -105 -125 -224 -303
-296 -445 -31 -59 -56 -111 -56 -114 0 -3 729 -6 1619 -6 l1620 0 70 -132
c217 -407 418 -772 426 -774 6 -2 60 87 120 198 61 111 170 309 243 441 72
132 132 244 132 249 0 5 -28 64 -61 130 -313 612 -872 1051 -1540 1208 -210
49 -524 70 -738 50z"/>
<path d="M916 3535 c-3 -8 -11 -77 -17 -153 -28 -331 25 -700 146 -1008 307
-785 991 -1332 1826 -1460 158 -25 500 -25 658 0 683 104 1275 494 1635 1075
168 272 279 577 321 884 16 117 30 304 22 297 -5 -5 -62 -108 -377 -677 l-123
-223 -206 0 -207 0 -64 118 c-63 116 -176 321 -377 687 -58 105 -109 194 -114
200 -5 5 -9 -198 -9 -498 l0 -507 -415 0 -415 0 0 640 0 640 -140 0 -140 0 0
-640 0 -640 -420 0 -420 0 -2 638 -3 637 -576 3 c-509 2 -577 0 -583 -13z"/>
</g>
</svg>
